<svg xmlns="http://www.w3.org/2000/svg" viewBox="0 0 512 512">
  <defs>
    <linearGradient id="bg" x1="0%" y1="0%" x2="100%" y2="100%">
      <stop offset="0%" stop-color="#153126" />
      <stop offset="100%" stop-color="#08110e" />
    </linearGradient>
  </defs>
  <rect width="512" height="512" rx="120" fill="url(#bg)" />
  <circle cx="256" cy="256" r="168" fill="#f1e7d2" opacity="0.15" />
  <path d="M176 166h160c27.614 0 50 22.386 50 50v80c0 27.614-22.386 50-50 50H176c-27.614 0-50-22.386-50-50v-80c0-27.614 22.386-50 50-50Z" fill="#f3eee2" />
  <path d="M180 192h152c15.464 0 28 12.536 28 28v72c0 15.464-12.536 28-28 28H180c-15.464 0-28-12.536-28-28v-72c0-15.464 12.536-28 28-28Z" fill="#102019" />
  <path d="M226 212l-44 64h34l-12 26 52-74h-30l18-16h42l-17 16h32l-45 64h33l-68 34 22-34h-39l52-80Z" fill="#d4ab5f" />
  <text x="256" y="390" fill="#f3eee2" font-family="Georgia, serif" font-size="64" text-anchor="middle">₹</text>
</svg>
